<svg width="120" height="350" viewBox="0 0 120 350" fill="none" xmlns="http://www.w3.org/2000/svg">
<path opacity="0.1" d="M15.0872 308.337L55.3536 323.225L55.3536 292.938L15.0872 307.826L15.0872 308.337ZM90.261 349.058L0.996604 314.698L0.996604 301.463L90.261 267.105C90.261 274.888 85.4622 281.829 78.2782 284.435L66.0745 288.865L66.0745 327.17L78.297 331.672C85.477 334.315 90.261 341.269 90.261 349.058Z" fill="#113771"/>
<path opacity="0.1" d="M90.2617 203.729L90.2617 214.928L81.7833 214.928L81.7833 215.439C84.7747 217.22 87.2677 219.954 89.2623 223.647C91.257 227.337 92.2563 231.177 92.2563 235.163C92.2563 242.798 90.1176 248.675 85.8346 252.787C81.5557 256.901 75.468 258.958 67.5715 258.958L29.1745 258.958L29.1745 247.251L66.8227 247.251C76.7973 246.999 81.7833 241.867 81.7833 231.856C81.7833 227.188 79.9368 223.287 76.2357 220.145C72.5373 217.009 68.1143 215.439 62.9586 215.439L29.1745 215.439L29.1745 203.729L90.2617 203.729Z" fill="#113771"/>
<path opacity="0.1" d="M90.2615 174.59L90.2615 186.3L29.1743 186.3L29.1743 175.101L39.1463 175.101L39.1463 174.59C35.9044 173.404 33.1421 170.963 30.8578 167.273C28.5709 163.585 27.4261 159.958 27.4261 156.393C27.4261 153.003 27.9285 150.117 28.9238 147.739L40.0204 151.304C39.4385 152.747 39.1463 155.039 39.1463 158.174C39.1463 162.588 40.8904 166.428 44.3828 169.69C47.8751 172.961 51.948 174.59 56.5999 174.59L90.2615 174.59Z" fill="#113771"/>
<path opacity="0.1" d="M90.261 124.197L90.261 135.908L29.1738 135.908L29.1738 124.197L90.261 124.197ZM8.10257 121.781C10.3477 121.781 12.2603 122.588 13.8401 124.197C15.4173 125.811 16.2078 127.762 16.2078 130.054C16.2078 132.343 15.4173 134.298 13.8401 135.908C12.2603 137.518 10.3477 138.325 8.10257 138.325C5.86009 138.325 3.94893 137.518 2.36774 135.908C0.790589 134.298 6.92208e-07 132.343 5.92152e-07 130.054C4.91976e-07 127.762 0.790589 125.811 2.36774 124.197C3.94893 122.588 5.86008 121.781 8.10257 121.781Z" fill="#113771"/>
<path opacity="0.1" d="M0.00118207 76.9893C0.00118189 72.7495 0.708266 69.2699 2.1211 66.5547L12.2183 69.736C11.223 71.772 10.722 74.0611 10.722 76.6058C10.722 79.4914 11.7012 81.8464 13.6514 83.6694C15.6043 85.4951 18.2037 86.408 21.4455 86.408L29.175 86.408L29.175 70.1154L39.644 70.1154L39.644 86.408L90.2622 86.408L90.2622 98.1142L39.644 98.1142L39.644 109.82L29.175 109.82L29.175 98.1142L20.3209 98.1142C14.2548 98.1142 9.35362 96.14 5.61076 92.1958C1.8706 88.2502 0.00118235 83.1841 0.00118207 76.9893Z" fill="#113771"/>
<path opacity="0.1" d="M29.1747 3.9701e-06L120 39.0685C120 45.0887 113.933 49.1182 108.541 46.6766L86.3964 36.6517L40.5864 57.2321C35.2098 59.6462 29.1747 55.6278 29.1747 49.631L73.0546 31.0508L73.0546 30.7992L40.7373 17.4886C33.7499 14.6112 29.1747 7.69053 29.1747 3.9701e-06Z" fill="#113771"/>
</svg>
