<svg width="204" height="53" viewBox="0 0 204 53" fill="none" xmlns="http://www.w3.org/2000/svg">
<g clip-path="url(#clip0_1693_613)">
<path d="M75.8575 6.68233L69.6913 23.3603H82.2356L76.0694 6.68233H75.8575ZM58.9913 37.8186L73.2228 0.846121H78.7046L92.9356 37.8186C89.7121 37.8186 86.8371 35.831 85.7575 32.8554L83.9228 27.8008H68.057L66.1927 32.8632C65.0977 35.8371 62.2176 37.8186 58.9913 37.8186Z" fill="#113771"/>
<path d="M119.185 37.8188H114.547V34.3072H114.335C113.597 35.5462 112.465 36.5788 110.935 37.4049C109.407 38.2311 107.817 38.645 106.165 38.645C103.003 38.645 100.569 37.7592 98.8659 35.9852C97.1617 34.2129 96.3098 31.6914 96.3098 28.4208V12.5171H101.159V28.1106C101.263 32.242 103.389 34.3072 107.535 34.3072C109.469 34.3072 111.085 33.5424 112.386 32.0094C113.685 30.4776 114.335 28.6456 114.335 26.5102V12.5171H119.185V37.8188Z" fill="#113771"/>
<path d="M131.254 37.8188H126.404V12.5171H131.043V16.6474H131.254C131.746 15.3047 132.757 14.1605 134.285 13.2144C135.813 12.2672 137.315 11.793 138.791 11.793C140.195 11.793 141.391 12.0011 142.376 12.4133L140.899 17.0094C140.301 16.7685 139.352 16.6474 138.054 16.6474C136.225 16.6474 134.635 17.3698 133.284 18.8163C131.929 20.2628 131.254 21.9497 131.254 23.8766V37.8188Z" fill="#113771"/>
<path d="M152.127 37.8186H147.276V12.5169H152.127V37.8186ZM153.128 3.78935C153.128 4.71928 152.793 5.51143 152.127 6.16578C151.458 6.81902 150.65 7.14648 149.701 7.14648C148.753 7.14648 147.943 6.81902 147.276 6.16578C146.609 5.51143 146.275 4.71928 146.275 3.78935C146.275 2.86053 146.609 2.06895 147.276 1.41403C147.943 0.760794 148.753 0.43334 149.701 0.43334C150.65 0.43334 151.458 0.760794 152.127 1.41403C152.793 2.06895 153.128 2.86053 153.128 3.78935Z" fill="#113771"/>
<path d="M171.68 0.433811C173.436 0.433811 174.877 0.72668 176.002 1.31186L174.684 5.49405C173.841 5.0818 172.893 4.87428 171.839 4.87428C170.643 4.87428 169.668 5.27984 168.913 6.0876C168.157 6.89648 167.779 7.97312 167.779 9.31586V12.5174H174.527V16.8535H167.779V37.8191H162.93V16.8535H158.081V12.5174H162.93V8.85006C162.93 6.33751 163.748 4.30751 165.381 2.75725C167.016 1.2081 169.114 0.433811 171.68 0.433811Z" fill="#113771"/>
<path d="M203.568 12.5171L187.386 50.1361C184.893 50.1361 183.224 47.623 184.235 45.3899L188.387 36.2178L179.863 17.2437C178.863 15.0168 180.527 12.5171 183.011 12.5171L190.707 30.6918H190.811L196.324 17.3062C197.516 14.4121 200.383 12.5171 203.568 12.5171Z" fill="#113771"/>
</g>
<path d="M60.7651 44.3976V43.7655H65.1788V44.3976H63.3283V49.6504H62.6157V44.3976H60.7651Z" fill="#113771"/>
<path d="M70.6004 49.6504V43.7655H74.152V44.3976H71.313V46.3861H73.9681V47.0183H71.313V49.0182H74.198V49.6504H70.6004ZM84.9765 45.6045H84.2639C84.2217 45.3995 84.148 45.2195 84.0426 45.0643C83.9392 44.9091 83.8127 44.7789 83.6633 44.6735C83.5158 44.5662 83.352 44.4858 83.1719 44.4321C82.9919 44.3785 82.8041 44.3517 82.6087 44.3517C82.2524 44.3517 81.9296 44.4417 81.6404 44.6218C81.353 44.8018 81.1241 45.0672 80.9536 45.4177C80.785 45.7683 80.7007 46.1984 80.7007 46.7079C80.7007 47.2175 80.785 47.6476 80.9536 47.9981C81.1241 48.3487 81.353 48.614 81.6404 48.7941C81.9296 48.9742 82.2524 49.0642 82.6087 49.0642C82.8041 49.0642 82.9919 49.0374 83.1719 48.9837C83.352 48.9301 83.5158 48.8506 83.6633 48.7452C83.8127 48.638 83.9392 48.5067 84.0426 48.3516C84.148 48.1945 84.2217 48.0144 84.2639 47.8114H84.9765C84.9228 48.1121 84.8251 48.3813 84.6834 48.6188C84.5416 48.8563 84.3654 49.0585 84.1547 49.2251C83.9439 49.3899 83.7074 49.5153 83.4449 49.6015C83.1844 49.6877 82.9057 49.7308 82.6087 49.7308C82.1068 49.7308 81.6605 49.6082 81.2697 49.363C80.8789 49.1178 80.5714 48.7692 80.3473 48.3171C80.1232 47.865 80.0111 47.3286 80.0111 46.7079C80.0111 46.0873 80.1232 45.5509 80.3473 45.0988C80.5714 44.6467 80.8789 44.298 81.2697 44.0528C81.6605 43.8076 82.1068 43.685 82.6087 43.685C82.9057 43.685 83.1844 43.7281 83.4449 43.8143C83.7074 43.9005 83.9439 44.027 84.1547 44.1936C84.3654 44.3584 84.5416 44.5595 84.6834 44.7971C84.8251 45.0327 84.9228 45.3018 84.9765 45.6045Z" fill="#113771"/>
<path d="M91.0538 49.6504V43.7655H91.7664V46.3861H94.9043V43.7655H95.6169V49.6504H94.9043V47.0183H91.7664V49.6504H91.0538Z" fill="#113771"/>
<path d="M106.452 43.7655V49.6504H105.762L102.555 45.0298H102.498V49.6504H101.785V43.7655H102.475L105.693 48.3975H105.751V43.7655H106.452ZM118.027 46.7079C118.027 47.3286 117.915 47.865 117.691 48.3171C117.467 48.7692 117.159 49.1178 116.768 49.363C116.378 49.6082 115.931 49.7308 115.429 49.7308C114.927 49.7308 114.481 49.6082 114.09 49.363C113.7 49.1178 113.392 48.7692 113.168 48.3171C112.944 47.865 112.832 47.3286 112.832 46.7079C112.832 46.0873 112.944 45.5509 113.168 45.0988C113.392 44.6467 113.7 44.298 114.09 44.0528C114.481 43.8076 114.927 43.685 115.429 43.685C115.931 43.685 116.378 43.8076 116.768 44.0528C117.159 44.298 117.467 44.6467 117.691 45.0988C117.915 45.5509 118.027 46.0873 118.027 46.7079ZM117.337 46.7079C117.337 46.1984 117.252 45.7683 117.082 45.4177C116.913 45.0672 116.684 44.8018 116.395 44.6218C116.108 44.4417 115.786 44.3517 115.429 44.3517C115.073 44.3517 114.75 44.4417 114.461 44.6218C114.174 44.8018 113.945 45.0672 113.774 45.4177C113.606 45.7683 113.521 46.1984 113.521 46.7079C113.521 47.2175 113.606 47.6476 113.774 47.9981C113.945 48.3487 114.174 48.614 114.461 48.7941C114.75 48.9742 115.073 49.0642 115.429 49.0642C115.786 49.0642 116.108 48.9742 116.395 48.7941C116.684 48.614 116.913 48.3487 117.082 47.9981C117.252 47.6476 117.337 47.2175 117.337 46.7079ZM124.409 49.6504V43.7655H125.122V49.0182H127.857V49.6504H124.409ZM139.11 46.7079C139.11 47.3286 138.998 47.865 138.774 48.3171C138.55 48.7692 138.242 49.1178 137.851 49.363C137.46 49.6082 137.014 49.7308 136.512 49.7308C136.01 49.7308 135.564 49.6082 135.173 49.363C134.782 49.1178 134.475 48.7692 134.251 48.3171C134.027 47.865 133.915 47.3286 133.915 46.7079C133.915 46.0873 134.027 45.5509 134.251 45.0988C134.475 44.6467 134.782 44.298 135.173 44.0528C135.564 43.8076 136.01 43.685 136.512 43.685C137.014 43.685 137.46 43.8076 137.851 44.0528C138.242 44.298 138.55 44.6467 138.774 45.0988C138.998 45.5509 139.11 46.0873 139.11 46.7079ZM138.42 46.7079C138.42 46.1984 138.335 45.7683 138.165 45.4177C137.996 45.0672 137.767 44.8018 137.478 44.6218C137.19 44.4417 136.869 44.3517 136.512 44.3517C136.156 44.3517 135.833 44.4417 135.544 44.6218C135.257 44.8018 135.028 45.0672 134.857 45.4177C134.689 45.7683 134.604 46.1984 134.604 46.7079C134.604 47.2175 134.689 47.6476 134.857 47.9981C135.028 48.3487 135.257 48.614 135.544 48.7941C135.833 48.9742 136.156 49.0642 136.512 49.0642C136.869 49.0642 137.19 48.9742 137.478 48.7941C137.767 48.614 137.996 48.3487 138.165 47.9981C138.335 47.6476 138.42 47.2175 138.42 46.7079ZM149.515 45.6045C149.452 45.411 149.368 45.2377 149.265 45.0844C149.163 44.9292 149.042 44.7971 148.9 44.6879C148.76 44.5787 148.601 44.4953 148.423 44.4379C148.245 44.3804 148.049 44.3517 147.837 44.3517C147.488 44.3517 147.171 44.4417 146.886 44.6218C146.6 44.8018 146.373 45.0672 146.205 45.4177C146.036 45.7683 145.952 46.1984 145.952 46.7079C145.952 47.2175 146.037 47.6476 146.207 47.9981C146.378 48.3487 146.609 48.614 146.9 48.7941C147.191 48.9742 147.519 49.0642 147.883 49.0642C148.22 49.0642 148.517 48.9924 148.773 48.8487C149.032 48.7031 149.233 48.4981 149.377 48.2338C149.522 47.9675 149.595 47.6543 149.595 47.2941L149.814 47.3401H148.044V46.7079H150.285V47.3401C150.285 47.8248 150.181 48.2462 149.975 48.6044C149.77 48.9627 149.486 49.2404 149.124 49.4378C148.764 49.6331 148.35 49.7308 147.883 49.7308C147.362 49.7308 146.904 49.6082 146.509 49.363C146.116 49.1178 145.81 48.7692 145.59 48.3171C145.371 47.865 145.262 47.3286 145.262 46.7079C145.262 46.2424 145.324 45.8239 145.449 45.4522C145.575 45.0787 145.753 44.7607 145.983 44.4982C146.213 44.2358 146.485 44.0346 146.799 43.8948C147.114 43.7549 147.459 43.685 147.837 43.685C148.147 43.685 148.436 43.7319 148.704 43.8258C148.975 43.9178 149.215 44.049 149.426 44.2195C149.638 44.3881 149.816 44.5902 149.957 44.8258C150.099 45.0595 150.197 45.3191 150.25 45.6045H149.515Z" fill="#113771"/>
<path d="M157.39 43.7655V49.6504H156.678V43.7655H157.39ZM163.624 49.6504V43.7655H167.175V44.3976H164.336V46.3861H166.991V47.0183H164.336V49.0182H167.221V49.6504H163.624Z" fill="#113771"/>
<path d="M176.394 45.2367C176.359 44.9455 176.22 44.7195 175.974 44.5586C175.729 44.3976 175.428 44.3172 175.072 44.3172C174.811 44.3172 174.584 44.3593 174.388 44.4436C174.195 44.5279 174.043 44.6438 173.934 44.7913C173.827 44.9388 173.773 45.1064 173.773 45.2942C173.773 45.4513 173.811 45.5863 173.885 45.6993C173.962 45.8104 174.06 45.9034 174.178 45.9781C174.297 46.0509 174.422 46.1112 174.552 46.1591C174.682 46.2051 174.802 46.2424 174.911 46.2712L175.509 46.4321C175.662 46.4723 175.833 46.5279 176.02 46.5987C176.21 46.6696 176.391 46.7664 176.563 46.889C176.738 47.0096 176.881 47.1648 176.994 47.3545C177.107 47.5441 177.164 47.7769 177.164 48.0527C177.164 48.3707 177.081 48.6581 176.914 48.9148C176.749 49.1715 176.508 49.3755 176.19 49.5268C175.874 49.6782 175.49 49.7538 175.038 49.7538C174.616 49.7538 174.251 49.6858 173.943 49.5498C173.636 49.4138 173.395 49.2242 173.219 48.9809C173.044 48.7376 172.946 48.455 172.923 48.1332H173.658C173.677 48.3554 173.752 48.5393 173.882 48.6849C174.015 48.8286 174.181 48.9358 174.382 49.0067C174.585 49.0757 174.804 49.1102 175.038 49.1102C175.31 49.1102 175.554 49.0661 175.77 48.978C175.987 48.888 176.158 48.7634 176.285 48.6044C176.411 48.4435 176.474 48.2558 176.474 48.0412C176.474 47.8458 176.42 47.6868 176.311 47.5642C176.201 47.4416 176.058 47.342 175.879 47.2654C175.701 47.1888 175.509 47.1217 175.302 47.0642L174.578 46.8574C174.118 46.7252 173.754 46.5365 173.486 46.2913C173.218 46.0461 173.084 45.7252 173.084 45.3287C173.084 44.9992 173.173 44.7118 173.351 44.4666C173.531 44.2195 173.772 44.0279 174.075 43.8919C174.38 43.754 174.72 43.685 175.095 43.685C175.474 43.685 175.811 43.753 176.106 43.889C176.401 44.0231 176.635 44.207 176.808 44.4407C176.982 44.6745 177.074 44.9398 177.083 45.2367H176.394Z" fill="#113771"/>
<mask id="mask0_1693_613" style="mask-type:luminance" maskUnits="userSpaceOnUse" x="9" y="0" width="23" height="15">
<path d="M9.45258 5.57848L24.5992 14.1135C26.2505 11.659 28.5851 9.70655 31.2045 8.25615L17.937 0.780983C17.0259 0.223136 16.0579 0 15.0898 0C12.1858 0 9.45258 2.34296 9.45258 5.57848Z" fill="white"/>
</mask>
<g mask="url(#mask0_1693_613)">
<path d="M-69.0135 -109.339L-69.0139 360.308L269.949 360.308L269.95 -109.338L-69.0135 -109.339Z" fill="url(#paint0_linear_1693_613)"/>
</g>
<mask id="mask1_1693_613" style="mask-type:luminance" maskUnits="userSpaceOnUse" x="25" y="8" width="22" height="33">
<path d="M25.624 14.6712L43.8454 24.9914L39.9164 27.2228C39.9164 27.2228 33.1403 31.2951 26.0226 35.5348C27.7308 37.8777 30.0654 39.7186 32.7417 40.9459L44.8135 34.0844C45.7815 31.3509 46.294 28.3943 46.294 25.2704C46.294 21.9791 45.6676 18.7435 44.5857 15.8427L32.457 8.9812C29.7238 10.2643 27.3892 12.2725 25.624 14.6712Z" fill="white"/>
</mask>
<g mask="url(#mask1_1693_613)">
<path d="M-69.0141 360.308H269.949V-109.338H-69.0141V360.308Z" fill="url(#paint1_linear_1693_613)"/>
</g>
<mask id="mask2_1693_613" style="mask-type:luminance" maskUnits="userSpaceOnUse" x="0" y="10" width="23" height="30">
<path d="M0 14.727L18.2215 24.9914L14.2925 27.2228C14.2925 27.2228 7.51637 31.295 0.398598 35.5347L0.455539 35.5905C3.2457 39.2723 8.48438 40.2206 12.5273 37.9334L22.606 32.1876C21.695 29.9562 21.1825 27.6132 21.1825 25.0471C21.1825 22.5368 21.695 20.0823 22.606 17.9067L12.2995 12.0493C10.819 11.2125 9.22463 10.822 7.63025 10.822C4.7262 10.822 1.82215 12.2166 0 14.727Z" fill="white"/>
</mask>
<g mask="url(#mask2_1693_613)">
<path d="M-69.014 -109.339L-69.0144 360.308L269.949 360.308L269.949 -109.339L-69.014 -109.339Z" fill="url(#paint2_linear_1693_613)"/>
</g>
<mask id="mask3_1693_613" style="mask-type:luminance" maskUnits="userSpaceOnUse" x="9" y="36" width="23" height="15">
<path d="M9.56635 45.4087C9.56635 49.2579 13.894 51.7124 17.3105 49.7599L31.4891 41.6711C28.9267 40.3881 26.649 38.4914 24.9977 36.1484C17.7091 40.4997 10.3635 44.9067 9.56635 45.4087Z" fill="white"/>
</mask>
<g mask="url(#mask3_1693_613)">
<path d="M-69.0135 -109.339L-69.0139 360.308L269.949 360.308L269.95 -109.338L-69.0135 -109.339Z" fill="url(#paint3_linear_1693_613)"/>
</g>
<defs>
<linearGradient id="paint0_linear_1693_613" x1="20.3211" y1="0.00893283" x2="20.3211" y2="14.103" gradientUnits="userSpaceOnUse">
<stop stop-color="#306EBB"/>
<stop offset="0.205952" stop-color="#3070BC"/>
<stop offset="0.571429" stop-color="#3A96D2"/>
<stop offset="0.792857" stop-color="#42BCE9"/>
<stop offset="1" stop-color="#53CABB"/>
</linearGradient>
<linearGradient id="paint1_linear_1693_613" x1="25.6407" y1="24.9656" x2="46.3175" y2="24.9656" gradientUnits="userSpaceOnUse">
<stop stop-color="#306EBB"/>
<stop offset="0.205952" stop-color="#3070BC"/>
<stop offset="0.571429" stop-color="#3A96D2"/>
<stop offset="0.792857" stop-color="#42BCE9"/>
<stop offset="1" stop-color="#53CABB"/>
</linearGradient>
<linearGradient id="paint2_linear_1693_613" x1="11.3275" y1="10.8265" x2="11.3275" y2="39.167" gradientUnits="userSpaceOnUse">
<stop stop-color="#306EBB"/>
<stop offset="0.205952" stop-color="#3070BC"/>
<stop offset="0.571429" stop-color="#3A96D2"/>
<stop offset="0.792857" stop-color="#42BCE9"/>
<stop offset="1" stop-color="#53CABB"/>
</linearGradient>
<linearGradient id="paint3_linear_1693_613" x1="20.5466" y1="36.1664" x2="20.5466" y2="50.4396" gradientUnits="userSpaceOnUse">
<stop stop-color="#306EBB"/>
<stop offset="0.205952" stop-color="#3070BC"/>
<stop offset="0.571429" stop-color="#3A96D2"/>
<stop offset="0.792857" stop-color="#42BCE9"/>
<stop offset="1" stop-color="#53CABB"/>
</linearGradient>
<clipPath id="clip0_1693_613">
<rect width="203.283" height="51.8798" fill="white" transform="translate(0.284668)"/>
</clipPath>
</defs>
</svg>
