<svg width="71" height="112" viewBox="0 0 71 112" fill="none" xmlns="http://www.w3.org/2000/svg">
<path d="M16.5617 36.0578L-21.3189 14.1856C-21.3189 3.27411 -9.52725 -3.50872 -0.0939598 1.89788L33.1191 21.0667C26.5354 24.7039 20.8361 29.8647 16.5617 36.0086V36.0578Z" fill="url(#paint0_linear_32_252)" fill-opacity="0.3"/>
<path d="M66.6254 40.4315C69.475 47.9514 70.998 56.1103 70.998 64.6625C70.998 73.2146 69.6715 80.1447 67.2149 87.2223L37.0486 104.769C30.3176 101.574 24.4711 96.8066 20.1476 90.9086C38.0312 79.9973 54.9814 69.6266 54.9814 69.6266L64.8075 63.9743L19.2141 37.5808C23.5376 31.3878 29.3842 26.2762 36.2133 22.8849L66.6254 40.4315Z" fill="url(#paint1_linear_32_252)" fill-opacity="0.3"/>
<path d="M-43.9191 91.0561L-44.0665 90.8595C-26.1829 79.9482 -9.23271 69.5775 -9.23271 69.5775L0.593464 63.9252L-45 37.5316C-38.0725 27.6525 -24.7581 24.7035 -14.2932 30.7489L11.5988 45.6906C9.19137 51.3428 7.9631 57.5357 7.9631 64.0235C7.9631 70.4622 9.2405 76.6059 11.5497 82.1599L-13.7036 96.8558C-23.8246 102.754 -36.9917 100.395 -43.9191 90.9578V91.0561Z" fill="url(#paint2_linear_32_252)" fill-opacity="0.3"/>
<path d="M-21.0241 116.074C-19.0097 114.796 -0.634411 103.59 17.5443 92.4814C21.8188 98.3796 27.3707 103.246 33.9052 106.588L-1.61704 127.231C-10.2151 132.245 -20.9749 126.002 -20.9749 116.074H-21.0241Z" fill="url(#paint3_linear_32_252)" fill-opacity="0.3"/>
<defs>
<linearGradient id="paint0_linear_32_252" x1="5.85098" y1="-0.0190052" x2="5.85098" y2="36.0578" gradientUnits="userSpaceOnUse">
<stop offset="0.2" stop-color="#416DB4"/>
<stop offset="0.6" stop-color="#408BC9"/>
<stop offset="0.8" stop-color="#34AFE4"/>
<stop offset="1" stop-color="#51C1B6"/>
</linearGradient>
<linearGradient id="paint1_linear_32_252" x1="19.2141" y1="63.8269" x2="70.998" y2="63.8269" gradientUnits="userSpaceOnUse">
<stop offset="0.2" stop-color="#416DB4"/>
<stop offset="0.6" stop-color="#408BC9"/>
<stop offset="0.8" stop-color="#34AFE4"/>
<stop offset="1" stop-color="#51C1B6"/>
</linearGradient>
<linearGradient id="paint2_linear_32_252" x1="-16.6515" y1="27.6525" x2="-16.6515" y2="100.149" gradientUnits="userSpaceOnUse">
<stop offset="0.2" stop-color="#416DB4"/>
<stop offset="0.6" stop-color="#408BC9"/>
<stop offset="0.8" stop-color="#34AFE4"/>
<stop offset="1" stop-color="#51C1B6"/>
</linearGradient>
<linearGradient id="paint3_linear_32_252" x1="6.44057" y1="92.4814" x2="6.44057" y2="129.001" gradientUnits="userSpaceOnUse">
<stop offset="0.2" stop-color="#416DB4"/>
<stop offset="0.6" stop-color="#408BC9"/>
<stop offset="0.8" stop-color="#34AFE4"/>
<stop offset="1" stop-color="#51C1B6"/>
</linearGradient>
</defs>
</svg>
