<svg width="225" height="81" viewBox="0 0 225 81" fill="none" xmlns="http://www.w3.org/2000/svg">
<path d="M74.9375 51.2256L87.4818 16.786H92.3198L104.864 51.2256C102.03 51.2256 99.4905 49.3819 98.5401 46.6074L96.916 41.8997H82.9375L81.296 46.6253C80.3284 49.3998 77.7885 51.2435 74.9548 51.2435L74.9375 51.2256ZM89.7971 22.2097L84.3716 37.7469H95.43L90.0045 22.2097H89.8144H89.7971Z" fill="#1D3D70"/>
<path d="M127.983 51.2257H123.888V47.95H123.698C123.041 49.0956 122.056 50.0622 120.709 50.8319C119.361 51.6016 117.961 51.9954 116.51 51.9954C113.728 51.9954 111.585 51.172 110.082 49.5252C108.579 47.8784 107.836 45.5335 107.836 42.4726V27.6514H112.104V42.1862C112.19 46.0347 114.074 47.9679 117.719 47.9679C119.43 47.9679 120.847 47.2519 121.987 45.8199C123.128 44.3879 123.698 42.6874 123.698 40.7005V27.6693H127.966V51.2436L127.983 51.2257Z" fill="#1D3D70"/>
<path d="M138.608 51.2256H134.34V27.6513H138.435V31.4998H138.625C139.057 30.2468 139.955 29.1907 141.303 28.2957C142.651 27.4186 143.981 26.9711 145.277 26.9711C146.521 26.9711 147.575 27.168 148.439 27.5439L147.143 31.822C146.625 31.5893 145.778 31.4819 144.638 31.4819C143.031 31.4819 141.631 32.1621 140.439 33.5046C139.247 34.8471 138.66 36.4223 138.66 38.2123V51.2077L138.608 51.2256Z" fill="#1D3D70"/>
<path d="M157.876 19.5247C157.876 20.3839 157.582 21.1357 156.994 21.7443C156.407 22.3529 155.699 22.6572 154.852 22.6572C154.023 22.6572 153.297 22.3529 152.709 21.7443C152.122 21.1357 151.828 20.4018 151.828 19.5247C151.828 18.6655 152.122 17.9137 152.709 17.3051C153.297 16.6965 154.005 16.3922 154.852 16.3922C155.681 16.3922 156.407 16.6965 156.994 17.3051C157.582 17.9137 157.876 18.6476 157.876 19.5247ZM156.994 27.6513V51.2256H152.727V27.6513H156.994Z" fill="#1D3D70"/>
<path d="M174.22 16.3922C175.775 16.3922 177.037 16.6607 178.022 17.2156L176.864 21.1178C176.121 20.7419 175.291 20.545 174.358 20.545C173.425 20.545 172.441 20.9209 171.784 21.6727C171.11 22.4245 170.782 23.4269 170.782 24.6799V27.6692H176.726V31.7146H170.782V51.2435H166.514V31.7146H162.246V27.6692H166.514V24.2503C166.514 21.9054 167.24 20.0259 168.674 18.576C170.108 17.1261 171.957 16.4101 174.22 16.4101V16.3922Z" fill="#1D3D70"/>
<path d="M202.314 27.6514L188.059 62.6996C185.864 62.6996 184.396 60.3547 185.277 58.2783L188.94 49.74L181.424 32.0548C180.543 29.9784 182.011 27.6514 184.206 27.6514L190.979 44.5848H191.065L195.921 32.1085C196.975 29.4056 199.497 27.6514 202.296 27.6514H202.314Z" fill="#1D3D70"/>
<path d="M78.4785 57.8128V62.5921H77.8046V57.8128H76.3359V57.1505H79.9472V57.8128H78.4785Z" fill="black"/>
<path d="M88.1381 57.1327V57.795H85.7364V59.5313H87.8962V60.1936H85.7364V61.9299H88.1381V62.5922H85.0625V57.1327H88.1381Z" fill="black"/>
<path d="M95.7925 62.7174C95.015 62.7174 94.3584 62.4489 93.84 61.894C93.3217 61.357 93.0625 60.6768 93.0625 59.8534C93.0625 59.03 93.3217 58.3677 93.84 57.8307C94.3584 57.2758 95.015 57.0073 95.7925 57.0073C96.5701 57.0073 97.2267 57.3116 97.7277 57.9023L97.2439 58.3856C96.8638 57.9202 96.38 57.6696 95.7925 57.6696C95.2051 57.6696 94.7213 57.8665 94.3239 58.2782C93.9437 58.672 93.7364 59.209 93.7364 59.8534C93.7364 60.4978 93.9264 61.0169 94.3239 61.4286C94.7213 61.8403 95.2051 62.0372 95.7925 62.0372C96.38 62.0372 96.9329 61.7687 97.3822 61.2317L97.8833 61.7329C97.6413 62.0372 97.3303 62.2878 96.9675 62.4489C96.6046 62.6279 96.2072 62.6995 95.7925 62.6995V62.7174Z" fill="black"/>
<path d="M103.772 62.5922H103.098V57.1327H103.772V59.4776H106.398V57.1327H107.072V62.5922H106.398V60.1399H103.772V62.5922Z" fill="black"/>
<path d="M113.225 62.5922H112.551V57.1327H113.38L115.937 61.375H115.972L115.937 60.3189V57.1327H116.611V62.5922H115.903L113.225 58.153H113.19L113.225 59.2091V62.6101V62.5922Z" fill="black"/>
<path d="M127.153 59.8714C127.153 60.6769 126.893 61.3571 126.375 61.8941C125.857 62.449 125.2 62.7175 124.457 62.7175C123.714 62.7175 123.058 62.449 122.539 61.8941C122.021 61.3571 121.762 60.6769 121.762 59.8714C121.762 59.0659 122.021 58.3857 122.539 57.8487C123.058 57.2938 123.697 57.0253 124.457 57.0253C125.217 57.0253 125.857 57.2938 126.375 57.8487C126.893 58.3857 127.153 59.0659 127.153 59.8714ZM122.436 59.8714C122.436 60.4979 122.626 61.017 123.006 61.4287C123.386 61.8404 123.87 62.0373 124.44 62.0373C125.01 62.0373 125.494 61.8404 125.874 61.4287C126.254 61.017 126.462 60.4979 126.462 59.8714C126.462 59.2449 126.271 58.7079 125.874 58.3141C125.494 57.9024 125.01 57.7055 124.44 57.7055C123.87 57.7055 123.386 57.9024 123.006 58.3141C122.626 58.7258 122.436 59.2449 122.436 59.8714Z" fill="black"/>
<path d="M135.326 62.5922H132.371V57.1327H133.045V61.912H135.326V62.5743V62.5922Z" fill="black"/>
<path d="M145.485 59.8714C145.485 60.6769 145.226 61.3571 144.707 61.8941C144.189 62.449 143.532 62.7175 142.789 62.7175C142.046 62.7175 141.39 62.449 140.871 61.8941C140.353 61.3571 140.094 60.6769 140.094 59.8714C140.094 59.0659 140.353 58.3857 140.871 57.8487C141.39 57.2938 142.029 57.0253 142.789 57.0253C143.549 57.0253 144.189 57.2938 144.707 57.8487C145.226 58.3857 145.485 59.0659 145.485 59.8714ZM140.768 59.8714C140.768 60.4979 140.958 61.017 141.338 61.4287C141.718 61.8404 142.202 62.0373 142.772 62.0373C143.342 62.0373 143.826 61.8404 144.206 61.4287C144.586 61.017 144.794 60.4979 144.794 59.8714C144.794 59.2449 144.603 58.7079 144.206 58.3141C143.826 57.9024 143.342 57.7055 142.772 57.7055C142.202 57.7055 141.718 57.9024 141.338 58.3141C140.958 58.7258 140.768 59.2449 140.768 59.8714Z" fill="black"/>
<path d="M155.697 60.0862C155.697 60.8559 155.472 61.4466 155.04 61.912C154.556 62.449 153.9 62.7175 153.105 62.7175C152.31 62.7175 151.688 62.449 151.17 61.8941C150.634 61.3392 150.375 60.6769 150.375 59.8714C150.375 59.0659 150.634 58.3857 151.17 57.8487C151.705 57.3117 152.345 57.0253 153.105 57.0253C153.865 57.0253 153.865 57.0969 154.194 57.2401C154.539 57.3833 154.816 57.5802 155.04 57.8487L154.556 58.3499C154.401 58.153 154.194 57.9919 153.934 57.8666C153.675 57.7592 153.399 57.6876 153.105 57.6876C152.535 57.6876 152.051 57.8845 151.654 58.2962C151.256 58.7079 151.066 59.227 151.066 59.8535C151.066 60.48 151.256 60.9991 151.654 61.4108C152.051 61.8225 152.535 62.0194 153.105 62.0194C153.675 62.0194 154.073 61.8583 154.418 61.554C154.764 61.2497 154.971 60.838 155.023 60.301H153.105V59.6387H155.662C155.68 59.7819 155.697 59.9251 155.697 60.0504V60.0862Z" fill="black"/>
<path d="M161.607 62.5922H160.934V57.1327H161.607V62.5922Z" fill="black"/>
<path d="M170.142 57.1327V57.795H167.74V59.5313H169.9V60.1936H167.74V61.9299H170.142V62.5922H167.066V57.1327H170.142Z" fill="black"/>
<path d="M178.711 61.1422C178.711 61.6255 178.538 62.0014 178.21 62.2878C177.864 62.5742 177.45 62.7174 176.966 62.7174C176.482 62.7174 176.137 62.5921 175.808 62.3236C175.48 62.0551 175.238 61.6971 175.117 61.2496L175.756 60.9811C175.808 61.1422 175.86 61.2854 175.947 61.4286C176.033 61.5718 176.119 61.6792 176.223 61.7687C176.327 61.8582 176.448 61.9298 176.569 61.9835C176.69 62.0372 176.828 62.0551 176.966 62.0551C177.277 62.0551 177.519 61.9656 177.726 61.8045C177.934 61.6434 178.02 61.4286 178.02 61.1422C178.02 60.8558 177.934 60.7126 177.778 60.5515C177.623 60.3904 177.346 60.2472 176.931 60.0861C176.517 59.925 176.24 59.8176 176.137 59.7639C175.584 59.4775 175.29 59.03 175.29 58.4572C175.29 57.8844 175.445 57.7054 175.756 57.4369C176.068 57.1505 176.448 57.0073 176.914 57.0073C177.381 57.0073 177.657 57.1147 177.951 57.3295C178.245 57.5443 178.435 57.7949 178.538 58.1171L177.899 58.3856C177.847 58.1887 177.726 58.0097 177.553 57.8844C177.381 57.7412 177.173 57.6875 176.914 57.6875C176.655 57.6875 176.43 57.7591 176.24 57.9202C176.068 58.0634 175.964 58.2424 175.964 58.4751C175.964 58.7078 176.033 58.8331 176.171 58.9584C176.327 59.1016 176.672 59.2627 177.191 59.4417C177.726 59.6207 178.106 59.8534 178.331 60.1398C178.556 60.4262 178.677 60.7484 178.677 61.1422H178.711Z" fill="black"/>
<path d="M44.6304 29.137L31.3086 21.1715C31.3086 17.1977 35.4555 14.7275 38.773 16.6965L50.4533 23.6775C48.138 25.0021 46.1337 26.8816 44.6304 29.1191V29.137Z" fill="url(#paint0_linear_2157_2)"/>
<path d="M62.2364 30.7301C63.2386 33.4688 63.7742 36.4402 63.7742 39.5548C63.7742 42.6694 63.3077 45.1933 62.4437 47.7709L51.8347 54.1612C49.4675 52.9977 47.4113 51.2614 45.8908 49.1134C52.1802 45.1396 58.1414 41.3627 58.1414 41.3627L61.5971 39.3042L45.5625 29.6919C47.083 27.4365 49.1392 25.5749 51.5409 24.3398L62.2364 30.7301Z" fill="url(#paint1_linear_2157_2)"/>
<path d="M23.3606 49.1672L23.3088 49.0956C29.5982 45.1218 35.5593 41.3449 35.5593 41.3449L39.0151 39.2864L22.9805 29.6741C25.4168 26.0762 30.0993 25.0022 33.7796 27.2039L42.8855 32.6455C42.0388 34.704 41.6069 36.9594 41.6069 39.3222C41.6069 41.6671 42.0561 43.9046 42.8682 45.9273L33.987 51.2794C30.4276 53.4274 25.7969 52.5682 23.3606 49.1314V49.1672Z" fill="url(#paint2_linear_2157_2)"/>
<path d="M31.4102 58.2783C32.1186 57.8129 38.5808 53.7317 44.9739 49.6863C46.4771 51.8343 48.4296 53.6064 50.7277 54.8236L38.2352 62.3416C35.2115 64.1674 31.4274 61.8941 31.4274 58.2783H31.4102Z" fill="url(#paint3_linear_2157_2)"/>
<path d="M44.6304 29.137L31.3086 21.1715C31.3086 17.1977 35.4555 14.7275 38.773 16.6965L50.4533 23.6775C48.138 25.0021 46.1337 26.8816 44.6304 29.1191V29.137Z" fill="url(#paint4_linear_2157_2)"/>
<path d="M62.2364 30.7301C63.2386 33.4688 63.7742 36.4402 63.7742 39.5548C63.7742 42.6694 63.3077 45.1933 62.4437 47.7709L51.8347 54.1612C49.4675 52.9977 47.4113 51.2614 45.8908 49.1134C52.1802 45.1396 58.1414 41.3627 58.1414 41.3627L61.5971 39.3042L45.5625 29.6919C47.083 27.4365 49.1392 25.5749 51.5409 24.3398L62.2364 30.7301Z" fill="url(#paint5_linear_2157_2)"/>
<path d="M23.3606 49.1672L23.3088 49.0956C29.5982 45.1218 35.5593 41.3449 35.5593 41.3449L39.0151 39.2864L22.9805 29.6741C25.4168 26.0762 30.0993 25.0022 33.7796 27.2039L42.8855 32.6455C42.0388 34.704 41.6069 36.9594 41.6069 39.3222C41.6069 41.6671 42.0561 43.9046 42.8682 45.9273L33.987 51.2794C30.4276 53.4274 25.7969 52.5682 23.3606 49.1314V49.1672Z" fill="url(#paint6_linear_2157_2)"/>
<path d="M31.4102 58.2783C32.1186 57.8129 38.5808 53.7317 44.9739 49.6863C46.4771 51.8343 48.4296 53.6064 50.7277 54.8236L38.2352 62.3416C35.2115 64.1674 31.4274 61.8941 31.4274 58.2783H31.4102Z" fill="url(#paint7_linear_2157_2)"/>
<defs>
<linearGradient id="paint0_linear_2157_2" x1="40.8637" y1="15.9984" x2="40.8637" y2="29.137" gradientUnits="userSpaceOnUse">
<stop offset="0.2" stop-color="#416DB4"/>
<stop offset="0.6" stop-color="#408BC9"/>
<stop offset="0.8" stop-color="#34AFE4"/>
<stop offset="1" stop-color="#51C1B6"/>
</linearGradient>
<linearGradient id="paint1_linear_2157_2" x1="45.5625" y1="39.2505" x2="63.7742" y2="39.2505" gradientUnits="userSpaceOnUse">
<stop offset="0.2" stop-color="#416DB4"/>
<stop offset="0.6" stop-color="#408BC9"/>
<stop offset="0.8" stop-color="#34AFE4"/>
<stop offset="1" stop-color="#51C1B6"/>
</linearGradient>
<linearGradient id="paint2_linear_2157_2" x1="32.9503" y1="26.0762" x2="32.9503" y2="52.4787" gradientUnits="userSpaceOnUse">
<stop offset="0.2" stop-color="#416DB4"/>
<stop offset="0.6" stop-color="#408BC9"/>
<stop offset="0.8" stop-color="#34AFE4"/>
<stop offset="1" stop-color="#51C1B6"/>
</linearGradient>
<linearGradient id="paint3_linear_2157_2" x1="41.0689" y1="49.6863" x2="41.0689" y2="62.986" gradientUnits="userSpaceOnUse">
<stop offset="0.2" stop-color="#416DB4"/>
<stop offset="0.6" stop-color="#408BC9"/>
<stop offset="0.8" stop-color="#34AFE4"/>
<stop offset="1" stop-color="#51C1B6"/>
</linearGradient>
<linearGradient id="paint4_linear_2157_2" x1="40.8637" y1="15.9984" x2="40.8637" y2="29.137" gradientUnits="userSpaceOnUse">
<stop offset="0.2" stop-color="#416DB4"/>
<stop offset="0.6" stop-color="#408BC9"/>
<stop offset="0.8" stop-color="#34AFE4"/>
<stop offset="1" stop-color="#51C1B6"/>
</linearGradient>
<linearGradient id="paint5_linear_2157_2" x1="45.5625" y1="39.2505" x2="63.7742" y2="39.2505" gradientUnits="userSpaceOnUse">
<stop offset="0.2" stop-color="#416DB4"/>
<stop offset="0.6" stop-color="#408BC9"/>
<stop offset="0.8" stop-color="#34AFE4"/>
<stop offset="1" stop-color="#51C1B6"/>
</linearGradient>
<linearGradient id="paint6_linear_2157_2" x1="32.9503" y1="26.0762" x2="32.9503" y2="52.4787" gradientUnits="userSpaceOnUse">
<stop offset="0.2" stop-color="#416DB4"/>
<stop offset="0.6" stop-color="#408BC9"/>
<stop offset="0.8" stop-color="#34AFE4"/>
<stop offset="1" stop-color="#51C1B6"/>
</linearGradient>
<linearGradient id="paint7_linear_2157_2" x1="41.0689" y1="49.6863" x2="41.0689" y2="62.986" gradientUnits="userSpaceOnUse">
<stop offset="0.2" stop-color="#416DB4"/>
<stop offset="0.6" stop-color="#408BC9"/>
<stop offset="0.8" stop-color="#34AFE4"/>
<stop offset="1" stop-color="#51C1B6"/>
</linearGradient>
</defs>
</svg>
