<svg width="1134" height="326" viewBox="0 0 1134 326" fill="none" xmlns="http://www.w3.org/2000/svg">
<g clip-path="url(#clip0_29_37)">
<mask id="mask0_29_37" style="mask-type:luminance" maskUnits="userSpaceOnUse" x="-114" y="-490" width="1382" height="1383">
<path d="M-114 -489H1267.33V892.333H-114V-489Z" fill="white"/>
</mask>
<g mask="url(#mask0_29_37)">
<path d="M422.333 58.9795L387.976 153.833H457.871L423.513 58.9795H422.333ZM328.357 236.063L407.652 25.7875H438.195L517.489 236.063C499.527 236.063 483.509 224.758 477.492 207.834L467.271 179.086H378.872L368.485 207.881C362.384 224.791 346.336 236.063 328.357 236.063Z" fill="#1D3D70"/>
</g>
<mask id="mask1_29_37" style="mask-type:luminance" maskUnits="userSpaceOnUse" x="-114" y="-490" width="1382" height="1383">
<path d="M-114 -489H1267.33V892.333H-114V-489Z" fill="white"/>
</mask>
<g mask="url(#mask1_29_37)">
<path d="M663.743 236.063H637.899V216.093H636.719C632.609 223.138 626.297 229.01 617.776 233.71C609.263 238.409 600.401 240.763 591.199 240.763C573.581 240.763 560.02 235.723 550.529 225.635C541.032 215.555 536.288 201.214 536.288 182.613V92.1632H563.304V180.85C563.887 204.347 575.731 216.093 598.835 216.093C609.604 216.093 618.609 211.741 625.859 203.023C633.093 194.313 636.719 183.891 636.719 171.746V92.1632H663.743V236.063Z" fill="#1D3D70"/>
</g>
<mask id="mask2_29_37" style="mask-type:luminance" maskUnits="userSpaceOnUse" x="-114" y="-490" width="1382" height="1383">
<path d="M-114 -489H1267.33V892.333H-114V-489Z" fill="white"/>
</mask>
<g mask="url(#mask2_29_37)">
<path d="M730.989 236.063H703.965V92.1648H729.809V115.654H730.989C733.729 108.018 739.359 101.51 747.873 96.1302C756.387 90.7408 764.756 88.0475 772.983 88.0475C780.808 88.0475 787.467 89.2275 792.953 91.5742L784.728 117.713C781.397 116.343 776.108 115.654 768.873 115.654C758.687 115.654 749.825 119.763 742.296 127.99C734.751 136.215 730.989 145.811 730.989 156.769V236.063Z" fill="#1D3D70"/>
</g>
<mask id="mask3_29_37" style="mask-type:luminance" maskUnits="userSpaceOnUse" x="-114" y="-490" width="1382" height="1383">
<path d="M-114 -489H1267.33V892.333H-114V-489Z" fill="white"/>
</mask>
<g mask="url(#mask3_29_37)">
<path d="M847.282 92.1643V236.063H820.258V92.1643H847.282ZM852.859 42.5283C852.859 47.8176 850.998 52.3203 847.282 56.0443C843.559 59.759 839.055 61.6216 833.766 61.6216C828.483 61.6216 823.974 59.759 820.258 56.0443C816.542 52.3203 814.681 47.8176 814.681 42.5283C814.681 37.2456 816.542 32.743 820.258 29.019C823.974 25.3043 828.483 23.4416 833.766 23.4416C839.055 23.4416 843.559 25.3043 847.282 29.019C850.998 32.743 852.859 37.2456 852.859 42.5283Z" fill="#1D3D70"/>
</g>
<mask id="mask4_29_37" style="mask-type:luminance" maskUnits="userSpaceOnUse" x="-114" y="-490" width="1382" height="1383">
<path d="M-114 -489H1267.33V892.333H-114V-489Z" fill="white"/>
</mask>
<g mask="url(#mask4_29_37)">
<path d="M956.227 23.4421C966.012 23.4421 974.042 25.1075 980.307 28.4368L972.967 52.2221C968.267 49.8755 962.984 48.6955 957.112 48.6955C950.452 48.6955 945.019 51.0035 940.811 55.5968C936.596 60.1981 934.492 66.3208 934.492 73.9568V92.1648H972.088V116.827H934.492V236.063H907.476V116.827H880.459V92.1648H907.476V71.3075C907.476 57.0195 912.032 45.4715 921.135 36.6555C930.239 27.8461 941.932 23.4421 956.227 23.4421Z" fill="#1D3D70"/>
</g>
<mask id="mask5_29_37" style="mask-type:luminance" maskUnits="userSpaceOnUse" x="-114" y="-490" width="1382" height="1383">
<path d="M-114 -489H1267.33V892.333H-114V-489Z" fill="white"/>
</mask>
<g mask="url(#mask5_29_37)">
<path d="M1133.9 92.1644L1043.74 306.118C1029.85 306.118 1020.55 291.824 1026.18 279.124L1049.32 226.959L1001.82 119.046C996.25 106.382 1005.53 92.1644 1019.36 92.1644L1062.24 195.531H1062.82L1093.54 119.402C1100.18 102.942 1116.15 92.1644 1133.9 92.1644Z" fill="#1D3D70"/>
</g>
<mask id="mask6_29_37" style="mask-type:luminance" maskUnits="userSpaceOnUse" x="-114" y="-490" width="1382" height="1383">
<path d="M-114 -489H1267.33V892.333H-114V-489Z" fill="white"/>
</mask>
<g mask="url(#mask6_29_37)">
<path d="M350.75 276.242V305.445H346.484V276.242H337.172V272.148H360.063V276.242H350.75ZM420.684 272.148V276.242H405.527V286.805H419.199V290.805H405.527V301.352H420.684V305.445H401.246V272.148H420.684ZM477.922 306.195C472.992 306.195 468.875 304.535 465.563 301.211C462.27 297.898 460.625 293.766 460.625 288.805C460.625 283.836 462.27 279.711 465.563 276.43C468.844 273.086 472.961 271.414 477.922 271.414C482.941 271.414 487.02 273.227 490.156 276.852L487.078 279.82C484.691 276.938 481.641 275.492 477.922 275.492C474.234 275.492 471.148 276.738 468.672 279.227C466.223 281.676 465 284.867 465 288.805C465 292.742 466.223 295.938 468.672 298.383C471.148 300.863 474.234 302.102 477.922 302.102C481.797 302.102 485.16 300.473 488.016 297.211L491.125 300.242C489.551 302.129 487.613 303.594 485.312 304.633C483.02 305.672 480.555 306.195 477.922 306.195ZM537.156 305.445H532.875V272.148H537.156V286.43H553.797V272.148H558.078V305.445H553.797V290.43H537.156V305.445ZM605.781 305.445H601.5V272.148H606.719L622.891 298.055H623.078L622.891 291.633V272.148H627.172V305.445H622.703L605.781 278.289H605.594L605.781 284.711V305.445ZM702.723 288.805C702.723 293.734 701.082 297.852 697.801 301.164C694.488 304.52 690.426 306.195 685.613 306.195C680.777 306.195 676.723 304.52 673.441 301.164C670.148 297.852 668.504 293.734 668.504 288.805C668.504 283.867 670.148 279.742 673.441 276.43C676.723 273.086 680.777 271.414 685.613 271.414C690.457 271.414 694.52 273.102 697.801 276.477C701.082 279.789 702.723 283.898 702.723 288.805ZM672.879 288.805C672.879 292.648 674.086 295.828 676.504 298.336C678.949 300.848 681.988 302.102 685.613 302.102C689.238 302.102 692.262 300.848 694.691 298.336C697.137 295.859 698.363 292.68 698.363 288.805C698.363 284.93 697.137 281.754 694.691 279.273C692.262 276.754 689.238 275.492 685.613 275.492C681.988 275.492 678.949 276.754 676.504 279.273C674.086 281.785 672.879 284.961 672.879 288.805ZM763.223 305.445H744.52V272.148H748.801V301.352H763.223V305.445ZM836.305 288.805C836.305 293.734 834.664 297.852 831.383 301.164C828.07 304.52 824.008 306.195 819.195 306.195C814.359 306.195 810.305 304.52 807.023 301.164C803.73 297.852 802.086 293.734 802.086 288.805C802.086 283.867 803.73 279.742 807.023 276.43C810.305 273.086 814.359 271.414 819.195 271.414C824.039 271.414 828.102 273.102 831.383 276.477C834.664 279.789 836.305 283.898 836.305 288.805ZM806.461 288.805C806.461 292.648 807.668 295.828 810.086 298.336C812.531 300.848 815.57 302.102 819.195 302.102C822.82 302.102 825.844 300.848 828.273 298.336C830.719 295.859 831.945 292.68 831.945 288.805C831.945 284.93 830.719 281.754 828.273 279.273C825.844 276.754 822.82 275.492 819.195 275.492C815.57 275.492 812.531 276.754 810.086 279.273C807.668 281.785 806.461 284.961 806.461 288.805ZM909.684 290.148C909.684 294.797 908.301 298.5 905.543 301.258C902.438 304.551 898.359 306.195 893.309 306.195C888.473 306.195 884.387 304.52 881.043 301.164C877.688 297.82 876.012 293.703 876.012 288.805C876.012 283.898 877.688 279.773 881.043 276.43C884.387 273.086 888.473 271.414 893.309 271.414C895.754 271.414 898.063 271.848 900.23 272.711C902.406 273.578 904.191 274.801 905.59 276.383L902.512 279.445C901.488 278.207 900.168 277.238 898.543 276.539C896.918 275.844 895.172 275.492 893.309 275.492C889.684 275.492 886.613 276.754 884.105 279.273C881.625 281.816 880.387 284.992 880.387 288.805C880.387 292.617 881.625 295.797 884.105 298.336C886.613 300.848 889.684 302.102 893.309 302.102C896.629 302.102 899.391 301.172 901.59 299.305C903.785 297.453 905.059 294.895 905.402 291.633H893.309V287.633H909.449C909.605 288.508 909.684 289.348 909.684 290.148ZM963.387 289.961V305.445H959.105V289.961L947.902 272.148H952.918L961.152 285.68H961.34L969.387 272.148H974.402L963.387 289.961Z" fill="black"/>
</g>
<path d="M52.3721 52.5561L136.62 101.184C146.08 87.4387 158.789 76.0574 173.421 67.9281L99.6001 25.2934C94.5254 22.3627 89.1467 21.0268 83.9027 21.0268C67.4587 21.0281 52.3721 34.1787 52.3721 52.5561Z" fill="url(#paint0_linear_29_37)"/>
<path d="M142.537 104.574L243.942 163.254L222.054 175.85C222.054 175.85 184.369 198.892 144.584 223.14C154.189 236.263 167.205 246.918 182.165 254.003L249.294 214.952C254.806 199.259 257.745 182.359 257.745 164.827C257.745 145.879 254.282 127.72 247.984 110.976L180.38 71.9255C165.16 79.4322 152.142 90.8216 142.537 104.574Z" fill="url(#paint1_linear_29_37)"/>
<path d="M-0.174805 104.583L101.217 163.261L79.3412 175.823C79.3412 175.823 41.6532 198.881 1.89319 223.121L2.18253 223.515C17.6532 244.467 46.8785 249.683 69.3932 236.591L125.604 203.907C120.432 191.491 117.623 177.893 117.623 163.556C117.623 149.071 120.432 135.325 125.753 122.763L68.1159 89.496C59.9825 84.8026 51.0679 82.552 42.2519 82.552C25.8785 82.552 9.85053 90.312 -0.174805 104.583Z" fill="url(#paint2_linear_29_37)"/>
<path d="M53.1108 279.137C53.1108 301.239 77.0682 315.025 96.1762 303.92L175.195 258.001C160.711 250.612 148.295 239.823 138.836 226.668C98.4868 251.351 57.5455 276.329 53.1108 279.137Z" fill="url(#paint3_linear_29_37)"/>
</g>
<defs>
<linearGradient id="paint0_linear_29_37" x1="112.897" y1="21.0267" x2="112.897" y2="101.184" gradientUnits="userSpaceOnUse">
<stop stop-color="#416DB4"/>
<stop offset="0.179839" stop-color="#416DB4"/>
<stop offset="0.550412" stop-color="#408BC9"/>
<stop offset="0.788547" stop-color="#34AFE4"/>
<stop offset="0.991994" stop-color="#51C1B6"/>
<stop offset="1" stop-color="#51C1B6"/>
</linearGradient>
<linearGradient id="paint1_linear_29_37" x1="142.537" y1="162.964" x2="257.746" y2="162.964" gradientUnits="userSpaceOnUse">
<stop stop-color="#416DB4"/>
<stop offset="0.179839" stop-color="#416DB4"/>
<stop offset="0.550412" stop-color="#408BC9"/>
<stop offset="0.788547" stop-color="#34AFE4"/>
<stop offset="0.991994" stop-color="#51C1B6"/>
<stop offset="1" stop-color="#51C1B6"/>
</linearGradient>
<linearGradient id="paint2_linear_29_37" x1="62.7887" y1="82.5527" x2="62.7886" y2="243.734" gradientUnits="userSpaceOnUse">
<stop stop-color="#416DB4"/>
<stop offset="0.179839" stop-color="#416DB4"/>
<stop offset="0.550412" stop-color="#408BC9"/>
<stop offset="0.788547" stop-color="#34AFE4"/>
<stop offset="0.991994" stop-color="#51C1B6"/>
<stop offset="1" stop-color="#51C1B6"/>
</linearGradient>
<linearGradient id="paint3_linear_29_37" x1="114.153" y1="226.668" x2="114.153" y2="307.844" gradientUnits="userSpaceOnUse">
<stop stop-color="#416DB4"/>
<stop offset="0.179839" stop-color="#416DB4"/>
<stop offset="0.550412" stop-color="#408BC9"/>
<stop offset="0.788547" stop-color="#34AFE4"/>
<stop offset="0.991994" stop-color="#51C1B6"/>
<stop offset="1" stop-color="#51C1B6"/>
</linearGradient>
<clipPath id="clip0_29_37">
<rect width="1134" height="326" fill="white"/>
</clipPath>
</defs>
</svg>
