<svg width="28" height="28" viewBox="0 0 28 28" fill="none" xmlns="http://www.w3.org/2000/svg">
<path d="M15.9559 21.6544H21.6544V5.69854H5.69852V21.6544H13.6765V15.9559H11.3971V13.6765H13.6765V11.7912C13.6765 10.2671 13.8351 9.71443 14.1331 9.15724C14.4312 8.60005 14.8684 8.16277 15.4256 7.86478C15.8617 7.63153 16.4029 7.49075 17.3483 7.43037C17.7236 7.4064 18.2092 7.43697 18.8051 7.52207V9.68751H18.2353C17.1898 9.68751 16.7585 9.73688 16.5005 9.8748C16.3406 9.96034 16.2287 10.0723 16.1431 10.2322C16.0052 10.4901 15.9559 10.7458 15.9559 11.7912V13.6765H18.8051L18.2353 15.9559H15.9559V21.6544ZM4.55882 3.41913H22.7941C23.4236 3.41913 23.9338 3.9294 23.9338 4.55883V22.7941C23.9338 23.4236 23.4236 23.9338 22.7941 23.9338H4.55882C3.92938 23.9338 3.41911 23.4236 3.41911 22.7941V4.55883C3.41911 3.9294 3.92938 3.41913 4.55882 3.41913Z" fill="white"/>
</svg>
