<svg width="21" height="21" viewBox="0 0 21 21" fill="none" xmlns="http://www.w3.org/2000/svg">
<path fill-rule="evenodd" clip-rule="evenodd" d="M6.63744 6.63745C7.64256 5.63232 9.0058 5.06765 10.4273 5.06765C11.8487 5.06765 13.212 5.63232 14.2171 6.63745C15.2222 7.64257 15.7869 9.00581 15.7869 10.4273C15.7869 11.8487 15.2222 13.212 14.2171 14.2171C13.212 15.2222 11.8487 15.7869 10.4273 15.7869C9.0058 15.7869 7.64256 15.2222 6.63744 14.2171C5.63232 13.212 5.06765 11.8487 5.06765 10.4273C5.06765 9.00581 5.63232 7.64257 6.63744 6.63745ZM9.09582 13.6417C9.51793 13.8165 9.97036 13.9065 10.4273 13.9065C11.35 13.9065 12.235 13.5399 12.8874 12.8875C13.5399 12.235 13.9065 11.35 13.9065 10.4273C13.9065 9.50451 13.5399 8.61956 12.8874 7.96708C12.235 7.31459 11.35 6.94803 10.4273 6.94803C9.97036 6.94803 9.51793 7.03803 9.09582 7.21287C8.6737 7.38772 8.29015 7.644 7.96707 7.96708C7.644 8.29015 7.38772 8.6737 7.21287 9.09582C7.03802 9.51794 6.94803 9.97036 6.94803 10.4273C6.94803 10.8842 7.03802 11.3366 7.21287 11.7587C7.38772 12.1808 7.644 12.5644 7.96707 12.8875C8.29015 13.2105 8.6737 13.4668 9.09582 13.6417Z" fill="white"/>
<path d="M16.975 5.86617C17.2126 5.62858 17.3461 5.30634 17.3461 4.97033C17.3461 4.63432 17.2126 4.31208 16.975 4.07449C16.7374 3.8369 16.4152 3.70342 16.0792 3.70342C15.7432 3.70342 15.4209 3.8369 15.1833 4.07449C14.9457 4.31208 14.8123 4.63432 14.8123 4.97033C14.8123 5.30634 14.9457 5.62858 15.1833 5.86617C15.4209 6.10377 15.7432 6.23724 16.0792 6.23724C16.4152 6.23724 16.7374 6.10377 16.975 5.86617Z" fill="white"/>
<path fill-rule="evenodd" clip-rule="evenodd" d="M6.12845 0.0625634C7.24069 0.0118176 7.59522 0 10.4273 0C13.26 0 13.6138 0.0125126 14.7254 0.0625634C15.8355 0.11331 16.5946 0.290573 17.2578 0.547083C17.9533 0.809057 18.5834 1.21945 19.1041 1.74969C19.6346 2.27059 20.045 2.90091 20.3067 3.59671C20.5646 4.25988 20.7412 5.01829 20.792 6.12845C20.8427 7.24069 20.8545 7.59522 20.8545 10.4273C20.8545 13.2593 20.8427 13.6138 20.792 14.7261C20.7412 15.8362 20.5646 16.5946 20.3074 17.2578C20.0455 17.9533 19.6351 18.5834 19.1048 19.1041C18.5835 19.6352 17.953 20.0454 17.2578 20.3067C16.5946 20.5646 15.8362 20.7412 14.7261 20.792C13.6138 20.8427 13.2593 20.8545 10.4273 20.8545C7.59522 20.8545 7.24069 20.8427 6.12845 20.792C5.01829 20.7412 4.25988 20.5646 3.59671 20.3074C2.90122 20.0454 2.27116 19.6351 1.75039 19.1048C1.21929 18.5835 0.809155 17.953 0.547779 17.2578C0.289878 16.5946 0.11331 15.8362 0.0625634 14.7261C0.0118176 13.6138 0 13.26 0 10.4273C0 7.59452 0.0125126 7.24069 0.0625634 6.12914C0.11331 5.01899 0.290573 4.25988 0.547083 3.59671C0.809057 2.90121 1.21945 2.27115 1.74969 1.75039C2.27106 1.21929 2.90156 0.809155 3.59671 0.547779C4.25988 0.289878 5.01829 0.11331 6.12845 0.0625634ZM14.6413 1.93947C13.5415 1.88942 13.2113 1.87899 10.4273 1.87899C7.64318 1.87899 7.31299 1.88942 6.21326 1.93947C5.19695 1.98605 4.645 2.15566 4.27726 2.29886C3.82431 2.46568 3.41454 2.73197 3.07813 3.07813C2.71387 3.44308 2.48725 3.79066 2.29886 4.27726C2.15497 4.645 1.98605 5.19695 1.93947 6.21326C1.88942 7.31299 1.87899 7.64318 1.87899 10.4273C1.87899 13.2113 1.88942 13.5415 1.93947 14.6413C1.98605 15.6576 2.15566 16.2095 2.29886 16.5773C2.46579 17.0302 2.73206 17.4399 3.07813 17.7764C3.41458 18.1225 3.82434 18.3888 4.27726 18.5557C4.645 18.6996 5.19695 18.8685 6.21326 18.9151C7.31299 18.9651 7.64249 18.9755 10.4273 18.9755C13.212 18.9755 13.5415 18.9651 14.6413 18.9151C15.6576 18.8685 16.2095 18.6989 16.5773 18.5557C17.0302 18.3889 17.44 18.1226 17.7764 17.7764C18.1225 17.4399 18.3888 17.0302 18.5557 16.5773C18.6996 16.2095 18.8685 15.6576 18.9151 14.6413C18.9651 13.5415 18.9755 13.2113 18.9755 10.4273C18.9755 7.64318 18.9651 7.31299 18.9151 6.21326C18.8685 5.19695 18.6989 4.645 18.5557 4.27726C18.3673 3.79066 18.1413 3.44308 17.7764 3.07813C17.4114 2.71387 17.0639 2.48725 16.5773 2.29886C16.2095 2.15497 15.6576 1.98605 14.6413 1.93947Z" fill="white"/>
</svg>
