<svg width="24" height="24" viewBox="0 0 24 24" fill="none" xmlns="http://www.w3.org/2000/svg">
<g clip-path="url(#clip0_14_109)">
<path d="M2.66473 1.375H20.6648C21.2861 1.375 21.7898 1.87868 21.7898 2.5V20.5C21.7898 21.1213 21.2861 21.625 20.6648 21.625H2.66473C2.04341 21.625 1.53973 21.1213 1.53973 20.5V2.5C1.53973 1.87868 2.04341 1.375 2.66473 1.375ZM3.78973 3.625V19.375H19.5398V3.625H3.78973ZM6.60223 8.125C5.67025 8.125 4.91473 7.36948 4.91473 6.4375C4.91473 5.50552 5.67025 4.75 6.60223 4.75C7.53421 4.75 8.28973 5.50552 8.28973 6.4375C8.28973 7.36948 7.53421 8.125 6.60223 8.125ZM5.47723 9.25H7.72723V17.6875H5.47723V9.25ZM11.6648 9.73319C12.3222 9.09851 13.0884 8.6875 13.9148 8.6875C16.2446 8.6875 17.8523 10.5763 17.8523 12.9062V17.6875H15.6023V12.9062C15.6023 11.8189 14.7208 10.9375 13.6335 10.9375C12.5462 10.9375 11.6648 11.8189 11.6648 12.9062V17.6875H9.41476V9.25H11.6648V9.73319Z" fill="white"/>
</g>
<defs>
<clipPath id="clip0_14_109">
<rect width="24" height="24" fill="white"/>
</clipPath>
</defs>
</svg>
