<svg width="22" height="22" viewBox="0 0 22 22" fill="none" xmlns="http://www.w3.org/2000/svg">
<g clip-path="url(#clip0_9_89)">
<path d="M13.5025 7.05833C13.4182 6.97226 13.3517 6.87044 13.3068 6.75867C13.2619 6.64691 13.2395 6.52739 13.2407 6.40694C13.242 6.2865 13.267 6.16748 13.3143 6.0567C13.3615 5.94591 13.4302 5.84551 13.5163 5.76125C13.6023 5.67699 13.7041 5.6105 13.8159 5.56559C13.9277 5.52067 14.0472 5.49821 14.1676 5.49949C14.2881 5.50077 14.4071 5.52575 14.5179 5.57303C14.6287 5.6203 14.7291 5.68893 14.8133 5.775L16.5 7.49925V0.916667C16.5 0.673552 16.5966 0.440394 16.7685 0.268485C16.9404 0.0965771 17.1736 0 17.4167 0C17.6598 0 17.8929 0.0965771 18.0648 0.268485C18.2368 0.440394 18.3333 0.673552 18.3333 0.916667V7.49925L20.02 5.775C20.1902 5.60117 20.4224 5.50207 20.6657 5.49949C20.9089 5.49691 21.1433 5.59107 21.3171 5.76125C21.4909 5.93143 21.59 6.16369 21.5926 6.40694C21.5952 6.65019 21.501 6.88451 21.3308 7.05833L19.0254 9.41417C18.6021 9.83951 18.0277 10.0801 17.4277 10.0833C17.4219 10.0847 17.416 10.0847 17.4102 10.0833C17.1139 10.0834 16.8205 10.025 16.5468 9.91142C16.2731 9.79785 16.0245 9.63136 15.8153 9.4215L13.5025 7.05833ZM21.0833 10.0833C20.8402 10.0833 20.6071 10.1799 20.4352 10.3518C20.2632 10.5237 20.1667 10.7569 20.1667 11V17.4167C20.1667 18.146 19.8769 18.8455 19.3612 19.3612C18.8455 19.8769 18.146 20.1667 17.4167 20.1667H4.58333C3.85399 20.1667 3.15451 19.8769 2.63879 19.3612C2.12306 18.8455 1.83333 18.146 1.83333 17.4167V8.31508L7.75958 14.2413C8.62043 15.0935 9.78227 15.5722 10.9935 15.5739C12.2048 15.5756 13.368 15.1002 14.2312 14.2505L15.9564 12.5739C16.0441 12.4903 16.1144 12.3902 16.1632 12.2793C16.212 12.1684 16.2383 12.0489 16.2406 11.9278C16.243 11.8067 16.2213 11.6863 16.1768 11.5736C16.1323 11.4609 16.0659 11.3581 15.9814 11.2713C15.897 11.1844 15.7961 11.1151 15.6847 11.0675C15.5734 11.0198 15.4536 10.9947 15.3325 10.9936C15.2113 10.9925 15.0912 11.0154 14.9789 11.061C14.8667 11.1067 14.7646 11.1741 14.6786 11.2594L12.9443 12.9452C12.4202 13.4447 11.724 13.7234 11 13.7234C10.276 13.7234 9.57979 13.4447 9.05575 12.9452L2.16425 6.05C2.39598 5.60866 2.74369 5.23887 3.16994 4.98044C3.59619 4.72201 4.08486 4.58471 4.58333 4.58333H11C11.2431 4.58333 11.4763 4.48676 11.6482 4.31485C11.8201 4.14294 11.9167 3.90978 11.9167 3.66667C11.9167 3.42355 11.8201 3.19039 11.6482 3.01849C11.4763 2.84658 11.2431 2.75 11 2.75H4.58333C3.3682 2.75146 2.20326 3.23481 1.34403 4.09404C0.484808 4.95326 0.00145554 6.1182 0 7.33333L0 17.4167C0.00145554 18.6318 0.484808 19.7967 1.34403 20.656C2.20326 21.5152 3.3682 21.9985 4.58333 22H17.4167C18.6318 21.9985 19.7967 21.5152 20.656 20.656C21.5152 19.7967 21.9985 18.6318 22 17.4167V11C22 10.7569 21.9034 10.5237 21.7315 10.3518C21.5596 10.1799 21.3264 10.0833 21.0833 10.0833Z" fill="white"/>
</g>
<defs>
<clipPath id="clip0_9_89">
<rect width="22" height="22" fill="white"/>
</clipPath>
</defs>
</svg>
