<svg width="27" height="27" viewBox="0 0 27 27" fill="none" xmlns="http://www.w3.org/2000/svg">
<g clip-path="url(#clip0_4_14)">
<path d="M16.0646 9.12068V5.63003C16.0646 5.39858 16.1566 5.17662 16.3202 5.01296C16.4839 4.8493 16.7059 4.75736 16.9373 4.75736C17.1688 4.75736 17.3907 4.8493 17.5544 5.01296C17.718 5.17662 17.81 5.39858 17.81 5.63003V7.90855C18.3598 7.35528 21.9124 3.78434 22.429 3.26773C22.5095 3.18438 22.6058 3.1179 22.7122 3.07216C22.8187 3.02643 22.9332 3.00235 23.0491 3.00135C23.165 3.00034 23.2799 3.02242 23.3871 3.0663C23.4944 3.11017 23.5918 3.17497 23.6737 3.25691C23.7557 3.33885 23.8205 3.43628 23.8644 3.54353C23.9082 3.65078 23.9303 3.76569 23.9293 3.88156C23.9283 3.99743 23.9042 4.11194 23.8585 4.21841C23.8128 4.32488 23.7463 4.42117 23.6629 4.50167C23.1463 5.01829 19.612 8.57265 19.0657 9.12068H21.3006C21.5321 9.12068 21.754 9.21263 21.9177 9.37628C22.0814 9.53994 22.1733 9.7619 22.1733 9.99335C22.1733 10.2248 22.0814 10.4468 21.9177 10.6104C21.754 10.7741 21.5321 10.866 21.3006 10.866H17.81C17.3471 10.866 16.9032 10.6821 16.5758 10.3548C16.2485 10.0275 16.0646 9.58357 16.0646 9.12068ZM23.1289 17.6196C23.6346 18.1267 23.9186 18.8136 23.9186 19.5298C23.9186 20.246 23.6346 20.933 23.1289 21.4401L22.333 22.3564C15.185 29.1963 -2.20545 11.8111 4.53065 4.6413L5.53421 3.76864C6.04179 3.27693 6.72254 3.00483 7.4292 3.0112C8.13586 3.01757 8.8116 3.30189 9.31023 3.80267C9.33728 3.82885 10.9535 5.93022 10.9535 5.93022C11.4316 6.4351 11.6977 7.10429 11.6967 7.79964C11.6957 8.495 11.4278 9.16344 10.9482 9.66697L9.93767 10.9376C10.497 12.2963 11.3193 13.5312 12.3573 14.5713C13.3953 15.6113 14.6285 16.4361 15.9861 16.9982L17.2646 15.9816C17.7671 15.5007 18.4355 15.2319 19.131 15.231C19.8265 15.23 20.4957 15.4969 20.9996 15.9763C20.9996 15.9763 23.1018 17.5934 23.1289 17.6196ZM21.929 18.8884C21.929 18.8884 19.8407 17.281 19.8136 17.2548C19.6338 17.0765 19.3909 16.9765 19.1377 16.9765C18.8846 16.9765 18.6416 17.0765 18.4619 17.2548C18.4383 17.2775 16.6781 18.6807 16.6781 18.6807C16.5595 18.7751 16.4184 18.837 16.2685 18.8603C16.1187 18.8835 15.9655 18.8674 15.8238 18.8134C14.064 18.1586 12.4655 17.1332 11.1368 15.8065C9.80804 14.4799 8.78006 12.8831 8.12253 11.1243C8.06424 10.9807 8.04523 10.8242 8.06747 10.6708C8.08971 10.5175 8.15239 10.3728 8.24907 10.2517C8.24907 10.2517 9.65231 8.49411 9.67587 8.47142C9.85413 8.29164 9.95415 8.04872 9.95415 7.79554C9.95415 7.54237 9.85413 7.29945 9.67587 7.11967C9.64969 7.09349 8.04225 5.00345 8.04225 5.00345C7.85977 4.83984 7.62163 4.75221 7.37662 4.75854C7.13162 4.76487 6.89831 4.86467 6.72452 5.03749L5.72096 5.91015C0.79739 11.8294 15.87 26.0661 21.0563 21.1669L21.8522 20.2498C22.0398 20.0776 22.1528 19.839 22.1672 19.5847C22.1815 19.3304 22.096 19.0806 21.929 18.8884Z" fill="white"/>
</g>
<defs>
<clipPath id="clip0_4_14">
<rect width="20.9439" height="20.9439" fill="white" transform="translate(2.99199 2.99197)"/>
</clipPath>
</defs>
</svg>
