<svg width="26" height="26" viewBox="0 0 26 26" fill="none" xmlns="http://www.w3.org/2000/svg">
<path d="M13 23.8334C7.01691 23.8334 2.16666 18.9831 2.16666 13C2.16666 7.01693 7.01691 2.16669 13 2.16669C18.983 2.16669 23.8333 7.01693 23.8333 13C23.8333 18.9831 18.983 23.8334 13 23.8334ZM10.5192 21.3064C9.47638 19.0947 8.83709 16.6554 8.69625 14.0834H4.40038C4.8295 17.5246 7.27609 20.3393 10.5192 21.3064ZM10.8666 14.0834C11.0295 16.7254 11.7843 19.2072 13 21.398C14.2157 19.2072 14.9705 16.7254 15.1334 14.0834H10.8666ZM21.5996 14.0834H17.3038C17.1629 16.6554 16.5236 19.0947 15.4808 21.3064C18.7239 20.3393 21.1705 17.5246 21.5996 14.0834ZM4.40038 11.9167H8.69625C8.83709 9.3446 9.47638 6.90526 10.5192 4.69363C7.27609 5.66079 4.8295 8.47548 4.40038 11.9167ZM10.8666 11.9167H15.1334C14.9705 9.27467 14.2157 6.79279 13 4.60201C11.7843 6.79279 11.0295 9.27467 10.8666 11.9167ZM15.4808 4.69363C16.5236 6.90526 17.1629 9.3446 17.3038 11.9167H21.5996C21.1705 8.47548 18.7239 5.66079 15.4808 4.69363Z" fill="white"/>
</svg>
