<svg width="26" height="26" viewBox="0 0 26 26" fill="none" xmlns="http://www.w3.org/2000/svg">
<path d="M7.78948 19.8607L8.56775 20.3145C9.86794 21.0727 11.3456 21.4775 12.8876 21.4775C17.6323 21.4775 21.4786 17.6312 21.4786 12.8865C21.4786 8.14184 17.6323 4.29552 12.8876 4.29552C8.14288 4.29552 4.29656 8.14184 4.29656 12.8865C4.29656 14.4289 4.70165 15.9071 5.46029 17.2076L5.91388 17.9851L5.21211 20.5641L7.78948 19.8607ZM2.15329 23.6253L3.60513 18.2897C2.67926 16.7027 2.1488 14.8566 2.1488 12.8865C2.1488 6.95567 6.95671 2.14777 12.8876 2.14777C18.8184 2.14777 23.6263 6.95567 23.6263 12.8865C23.6263 18.8173 18.8184 23.6253 12.8876 23.6253C10.9182 23.6253 9.07265 23.0952 7.48584 22.1699L2.15329 23.6253ZM9.01231 7.84826C9.15608 7.83815 9.30034 7.8366 9.4443 7.84363C9.50246 7.84745 9.56034 7.85417 9.61827 7.86086C9.78929 7.88061 9.97736 7.98477 10.0406 8.12812C10.3609 8.85451 10.6718 9.58506 10.9731 10.3196C11.0396 10.4817 10.9995 10.6919 10.873 10.8952C10.8088 10.9995 10.7079 11.1458 10.5911 11.2954C10.4696 11.4508 10.2083 11.7365 10.2083 11.7365C10.2083 11.7365 10.1024 11.8634 10.1423 12.0214C10.1578 12.0811 10.2074 12.1681 10.2524 12.2412C10.2773 12.2817 10.3004 12.3179 10.3154 12.3429C10.5902 12.8018 10.9597 13.267 11.4109 13.7044C11.5402 13.8297 11.6656 13.9576 11.8005 14.0764C12.3034 14.5198 12.8723 14.8821 13.4868 15.1505L13.4923 15.1529C13.583 15.192 13.6296 15.2134 13.7625 15.2698C13.8295 15.2981 13.898 15.3226 13.9683 15.3412C13.9938 15.3479 14.0199 15.3516 14.0461 15.3534C14.2197 15.3639 14.3201 15.2525 14.363 15.2013C15.1399 14.26 15.211 14.1986 15.2164 14.199V14.2007C15.3185 14.0931 15.4791 14.0558 15.6223 14.0646C15.6877 14.0685 15.7528 14.0811 15.8123 14.1083C16.3834 14.3688 17.3171 14.7752 17.3171 14.7752L17.9416 15.0559C18.0462 15.1063 18.1416 15.2252 18.1462 15.3408C18.149 15.4126 18.1568 15.5286 18.1311 15.7408C18.0975 16.0186 18.013 16.3531 17.929 16.5284C17.8699 16.6513 17.7935 16.7604 17.7046 16.8528C17.584 16.978 17.4944 17.054 17.3494 17.1621C17.2612 17.2278 17.2154 17.2587 17.2154 17.2587C17.0663 17.3528 16.9822 17.3998 16.8044 17.4944C16.528 17.6417 16.2226 17.7263 15.9098 17.7424C15.7104 17.7526 15.5115 17.767 15.3123 17.7562C15.3035 17.7557 14.7021 17.6633 14.7021 17.6633C13.1752 17.2617 11.763 16.5094 10.578 15.466C10.3358 15.2527 10.1111 15.0219 9.88174 14.7936C8.927 13.8431 8.20422 12.8182 7.76594 11.8487C7.54981 11.3706 7.41296 10.8586 7.4108 10.3318C7.40683 9.67999 7.62021 9.04549 8.01723 8.52859C8.09549 8.42669 8.16977 8.321 8.29794 8.19998C8.43366 8.07181 8.52005 8.00301 8.6131 7.95541C8.73713 7.89195 8.87336 7.85802 9.01231 7.84826Z" fill="white"/>
</svg>
