<svg width="32" height="32" viewBox="0 0 32 32" fill="none" xmlns="http://www.w3.org/2000/svg">
<rect x="0.5" y="0.5" width="31" height="31" rx="7.5" stroke="white"/>
<path d="M13 7.5H20.1709C20.616 7.5 20.7051 7.50792 20.7773 7.53711V7.53809C20.8473 7.56718 20.9139 7.62089 21.2324 7.93945L24.0615 10.7686C24.3774 11.0833 24.4327 11.1534 24.4619 11.2236C24.4908 11.2931 24.5 11.3789 24.5 11.8281V19C24.5 20.4281 24.4989 21.4497 24.3945 22.2256C24.3049 22.8917 24.1459 23.3198 23.8857 23.6377L23.7676 23.7676C23.477 24.0582 23.0959 24.2416 22.4971 24.3516C21.9823 24.446 21.3378 24.4789 20.498 24.4912L20.5 23.999V23C20.5 22.0713 20.5006 21.3248 20.4219 20.7393C20.3412 20.1392 20.1689 19.6337 19.7676 19.2324C19.3663 18.8311 18.8608 18.6588 18.2607 18.5781C17.6752 18.4994 16.9287 18.5 16 18.5H15C14.0713 18.5 13.3248 18.4994 12.7393 18.5781C12.1392 18.6588 11.6337 18.8311 11.2324 19.2324C10.8311 19.6337 10.6588 20.1392 10.5781 20.7393C10.4994 21.3248 10.5 22.0713 10.5 23V24C10.5 24.1596 10.5005 24.3129 10.501 24.46C9.37276 24.3936 8.75456 24.2247 8.32715 23.8555L8.23242 23.7676C7.90156 23.4371 7.70791 22.9869 7.60547 22.2256C7.50112 21.4497 7.5 20.4281 7.5 19V13C7.5 11.5719 7.50112 10.5503 7.60547 9.77441C7.69511 9.10826 7.85414 8.68022 8.11426 8.3623L8.23242 8.23242C8.5629 7.90156 9.01312 7.70791 9.77441 7.60547C10.5503 7.50112 11.5719 7.5 13 7.5Z" stroke="white"/>
<path d="M11 12H16" stroke="white" stroke-width="1.2" stroke-linecap="round"/>
</svg>
