<svg width="32" height="32" viewBox="0 0 32 32" fill="none" xmlns="http://www.w3.org/2000/svg">
<rect x="0.5" y="0.5" width="31" height="31" rx="7.5" stroke="white"/>
<path fill-rule="evenodd" clip-rule="evenodd" d="M18.25 9.49999C18.2501 8.74068 18.516 8.00536 19.0016 7.42166C19.4873 6.83796 20.162 6.44272 20.9086 6.30455C21.6552 6.16639 22.4267 6.29401 23.089 6.66526C23.7514 7.03652 24.2629 7.62798 24.5347 8.33698C24.8065 9.04599 24.8214 9.82777 24.5769 10.5467C24.3325 11.2655 23.844 11.8761 23.1963 12.2725C22.5487 12.6688 21.7827 12.8258 21.0313 12.7163C20.2799 12.6068 19.5906 12.2377 19.083 11.673L16.366 13.155L13.326 14.892C13.7514 15.6399 13.8629 16.526 13.636 17.356L19.083 20.327C19.6159 19.7349 20.3477 19.3592 21.1394 19.2711C21.9311 19.1831 22.7276 19.3889 23.3776 19.8494C24.0275 20.3099 24.4857 20.9931 24.6651 21.7693C24.8445 22.5454 24.7327 23.3604 24.3507 24.0594C23.9688 24.7585 23.3434 25.2929 22.5934 25.5613C21.8433 25.8296 21.0209 25.8131 20.2822 25.515C19.5435 25.2168 18.94 24.6577 18.5864 23.9439C18.2328 23.2301 18.1536 22.4113 18.364 21.643L12.917 18.673C12.5019 19.1347 11.9632 19.4679 11.3646 19.633C10.7661 19.7982 10.1328 19.7884 9.53963 19.6049C8.94647 19.4214 8.41828 19.0718 8.01758 18.5975C7.61688 18.1232 7.36042 17.5441 7.27856 16.9286C7.19669 16.3131 7.29285 15.6871 7.55565 15.1245C7.81845 14.562 8.23689 14.0865 8.76146 13.7543C9.28603 13.4221 9.89478 13.2472 10.5157 13.2501C11.1366 13.2531 11.7436 13.4338 12.265 13.771L15.635 11.845L18.364 10.356C18.2887 10.0769 18.2503 9.78909 18.25 9.49999ZM21.5 7.74999C21.0359 7.74999 20.5907 7.93437 20.2626 8.26256C19.9344 8.59074 19.75 9.03586 19.75 9.49999C19.75 9.96412 19.9344 10.4092 20.2626 10.7374C20.5907 11.0656 21.0359 11.25 21.5 11.25C21.9641 11.25 22.4092 11.0656 22.7374 10.7374C23.0656 10.4092 23.25 9.96412 23.25 9.49999C23.25 9.03586 23.0656 8.59074 22.7374 8.26256C22.4092 7.93437 21.9641 7.74999 21.5 7.74999ZM10.5 14.75C10.0359 14.75 9.59075 14.9344 9.26256 15.2626C8.93437 15.5907 8.75 16.0359 8.75 16.5C8.75 16.9641 8.93437 17.4092 9.26256 17.7374C9.59075 18.0656 10.0359 18.25 10.5 18.25C10.9641 18.25 11.4092 18.0656 11.7374 17.7374C12.0656 17.4092 12.25 16.9641 12.25 16.5C12.25 16.0359 12.0656 15.5907 11.7374 15.2626C11.4092 14.9344 10.9641 14.75 10.5 14.75ZM19.75 22.5C19.75 22.0359 19.9344 21.5907 20.2626 21.2626C20.5907 20.9344 21.0359 20.75 21.5 20.75C21.9641 20.75 22.4092 20.9344 22.7374 21.2626C23.0656 21.5907 23.25 22.0359 23.25 22.5C23.25 22.9641 23.0656 23.4092 22.7374 23.7374C22.4092 24.0656 21.9641 24.25 21.5 24.25C21.0359 24.25 20.5907 24.0656 20.2626 23.7374C19.9344 23.4092 19.75 22.9641 19.75 22.5Z" fill="white"/>
</svg>
